<?xml version="1.0" encoding="utf-8"?>
<!-- Generator: Adobe Illustrator 24.0.2, SVG Export Plug-In . SVG Version: 6.00 Build 0)  -->
<svg version="1.1" id="Capa_1" xmlns="http://www.w3.org/2000/svg" xmlns:xlink="http://www.w3.org/1999/xlink" x="0px" y="0px"
	 viewBox="0 0 813.2 704.4" style="enable-background:new 0 0 813.2 704.4;" xml:space="preserve">
<style type="text/css">
	.st0{fill:#FBFDFE;}
	.st1{fill:#5D375B;}
	.st2{fill:#7D4A3D;}
	.st3{fill:#F4D76B;}
	.st4{fill:#FAFBFB;}
	.st5{fill:#DFE7D4;}
	.st6{fill:#71A460;}
	.st7{fill:#6CAA59;}
	.st8{fill:#6C4840;}
	.st9{fill:#6CAA57;}
	.st10{fill:#6BA856;}
	.st11{fill:#3C3C39;}
	.st12{fill:#3D3C39;}
	.st13{fill:#3E3C39;}
	.st14{fill:#3E3D39;}
	.st15{fill:#F8F2C8;}
	.st16{fill:#EBCD84;}
	.st17{fill:#5F3C5C;}
	.st18{fill:#5F3D5C;}
	.st19{fill:#5A3B57;}
	.st20{fill:#6DAA59;}
	.st21{fill:#593D56;}
	.st22{fill:#6BAB57;}
</style>
<g>
	<g>
		<ellipse class="st0" cx="406.6" cy="352.2" rx="575" ry="498.1"/>
		<path class="st1" d="M212.4,160c15.4-5.9,31.3-9.8,47.7-11.6c56.6-6.2,108.2,7,154.1,40.9c9.9,7.3,18.9,15.8,28.7,24.1
			c0.4-0.2,1.6-0.8,2.7-1.4c23.8-12.7,49.1-20.1,76.1-21.8c40.8-2.6,79.4,5.3,115.2,24.9c34.1,18.7,62.4,44.1,82.9,77.5
			c15.3,25,26.1,51.8,30.7,80.9c4.2,26.4,4,52.7-0.8,79.1c-5.2,28.8-16.3,55.1-32.2,79.6c-22,33.8-51.8,58.3-88,75.3
			c-2.9,1.4-6,2.4-8.9,3.8c-18.3,8.8-37.9,12.7-57.8,15.1c-20.4,2.4-40.7,1.6-61-1.5c-13-2-25.8-4.6-38.1-9.3
			c-28.9-11.1-55.5-26.1-77.1-48.8c-0.5-0.5-0.8-1.1-1.2-1.7c-4.3,2-8.2,3.8-12.1,5.6c-24.4,10.8-49.9,16.9-76.5,18.2
			c-40.7,2-78.8-6.9-114.5-26.4c-12.7-6.9-24.7-14.9-35.5-24.6c-25.3-22.7-46-48.9-59.2-80.5c-9-21.4-15-43.5-17.2-66.7
			c-2.9-31.4,0.2-62.1,9.8-92.3c9.3-29.2,24.6-54.8,44.4-78.1c18.4-21.6,40.6-38.1,65.7-51c2.2-1.1,4.4-2,6.7-3
			c2.1-0.5,2.8,1,3.2,2.5c1.3,4.2,4,7,8.1,8.8c4.4,0,5.6-4.4,5.1-7.5c-0.3-2-0.5-4.1-1.4-6.1C211.4,162.7,211.3,161.2,212.4,160z"/>
		<path class="st2" d="M212.4,160c0.7,3.8,1.4,7.6,2.2,12.1c-0.9,2.7-1.8,6.4-6.5,6.8c-4.5-2.1-7.8-5.4-9.2-10.6
			c-0.2-0.8-1.3-1.3-2-1.9c-0.1-0.9,0-2-0.4-2.8c-14.1-28.5-28.2-57-42.5-85.3c-5.1-10.2-11.1-19.9-16.5-29.9
			c-1.5-2.7-2.7-5.6-3.4-8.6c-1.7-6.9,3.3-11.9,10.3-10.6c6,1.1,10.2,4.8,13,10c8.7,16.3,17.8,32.4,25.9,49
			c7.4,15.2,13.7,31,20.1,46.7c2.9,7.1,4.9,14.7,7.4,22C211.2,158,211.9,158.9,212.4,160z"/>
		<path class="st3" d="M501.5,344.2c-1.6-9.9-2.8-19.9-5-29.7c-3.7-16.4-9.3-32.2-17.1-47.2c-0.4-0.8-0.7-1.6-1-2.4
			c0.2-1.8,1.4-2.7,2.9-3.3c12.8-5.4,25.8-10.2,39.4-13c4.8-1,9.9-1.3,14.7-2c7.8-1.2,15.5-1.2,23.2-1c15.5,0.6,30.5,3.3,44.6,10.2
			c19.8,9.6,37.1,22.5,52,38.6c5.1,5.5,10.1,11.1,14.4,17.4c1.2,3.9,4.7,6.2,6.5,9.7c0.7,1.3,1.7,2.5,2.7,3.7
			c0.2,0.2,0.4,0.5,0.6,0.8c3,4.7,6.1,9.4,8.8,14.4c3.2,6,6.8,11.9,9.3,18.2c0.4,1.1,0.9,2.2,1.8,3.1c3.8,6.5,5.7,13.7,8.1,20.7
			c3.2,9.2,5.8,18.6,7.5,28.2c2.3,13.1,3.1,26.3,2.1,39.7c-1.6,23.7-11.7,43.9-25.5,62.4c-5.4,7.3-11.8,13.7-18.8,19.6
			c-3.7,3.1-7.1,6.7-11,9.5c-10.6,7.6-22,13.8-34,18.6c-11.5,4.6-23.4,8.1-35.6,10.7c-19.3,4-38.8,4.4-58.3,3.5
			c-13.3-0.6-26.7-2.1-39.9-4.8c-8.4-1.7-16.8-3.3-24.8-6c-14.8-5-29.3-11-41.7-21c-1.3-1-2.8-1.9-3.2-3.7
			c6.9-6.9,13.9-13.6,20.5-20.6c16.8-17.9,30-38.3,39.8-60.9c3-7,5.2-14.3,7.7-21.5c2.1-7,3.8-14.2,5.5-21.3
			c1.6-6.8,2.7-13.8,3.3-20.8c0.3-3.7,0.6-7.4,1.6-11.1c0.7-1,0.7-2.1,0.7-3.2c0-7.4,0-14.8,0-22.2c0-1.1-0.1-2.2-0.8-3.2
			C501.6,351.1,502.2,347.6,501.5,344.2z"/>
		<path class="st4" d="M669.3,312.3c-7.8-8.7-15.4-17.7-23.6-26.1c-8.7-8.9-18.9-15.9-29.5-22.5c-8.8-5.4-18.1-9.9-28-12.9
			c-5.4-1.6-11.1-2.7-16.8-3.2c-9-0.8-18.1-1.3-27.1-1.2c-6,0.1-12,1.4-18,2.3c-5,0.8-10,1.6-14.9,2.9c-5.9,1.6-11.8,3.6-17.6,5.7
			c-3.9,1.4-7.7,3.1-11.5,4.9c-1.4,0.7-2.7,1.7-4,2.6c-0.1-0.1-0.2-0.3-0.2-0.4c-0.1-0.2-0.3-0.4-0.5-0.6c-6.8-11-13.6-22-20.7-33.5
			c5.7-2.5,11.8-5.4,18-7.8c4.9-1.9,10-3.4,15.1-5.1c29.3-9.5,59.2-8.9,88.5-1.6c47.6,11.8,87.1,36.9,115.9,77.1
			c17.4,24.3,29.4,51.2,34.6,80.9c4.6,26.3,4.4,52.4-0.9,78.7c-5.9,29.3-18.3,55.6-36.5,79.3c-30.1,39.1-69.7,62.3-118,70.8
			c-44.3,7.9-87,2.1-127.5-17.9c-15.1-7.5-28.7-17.3-40.8-29c-0.5-0.4-0.8-1-1.3-1.5c6.8-5.1,13.4-10,20.1-15
			c5.8,4.1,11.4,8.6,17.5,12.1c5.6,3.2,11.7,5.6,17.7,7.9c5.7,2.2,11.6,4,17.4,5.8c2.9,0.9,5.9,1.7,8.9,2.2
			c9.8,1.8,19.6,3.6,29.5,5.1c6.3,0.9,12.8,1.4,19.2,1.5c14.6,0.3,29.3,0.8,43.8-1.3c8.4-1.3,16.7-2.8,24.8-5.1
			c10.8-3.1,21.6-6.8,32-11c6.5-2.6,12.5-6.6,18.5-10.3c4.8-3,9.7-6.2,13.9-9.9c11.2-10,22.1-20.4,30.1-33.3
			c5.2-8.4,9.7-17.2,13.1-26.5c5.2-14,6.5-28.6,5.8-43.3c-0.4-10.1-1.4-20.2-4.4-30c-2.7-8.9-5.3-17.8-8.1-26.6
			c-1.6-5-3.6-9.8-5.4-14.8c-5.4-12.7-11.8-24.8-19.9-36l0,0C676.2,320.6,672.5,316.6,669.3,312.3z"/>
		<path class="st5" d="M224.1,425.8c7.7-4.5,12.8-11.4,17.7-18.6c4.1-6,4.2-12.6,4.7-19.4c0.1-2.2,0.4-4.3,0.8-7.3
			c5.7,0.7,10.9,1.4,16.4,2.2c-0.6,5.7-1.2,10.8-1.5,15.8c-0.7,11.7-1.4,23.4-1.9,35.2c-0.1,1.8,0.3,3.8,0.9,5.5
			c0.8,2.5,2.5,2.9,4.2,0.9c1.5-1.8,2.7-3.8,3.6-5.9c4.6-10.4,7.7-21.3,9.5-32.5c0.7-4.6,0.5-9.3,0.8-13.9c0.1-1.8,0.4-3.5,0.7-5.9
			c5.3,0.5,10.4,1,16.2,1.6c0,1.8,0.1,3.4,0,5c-0.7,11.5-1.6,23-2.1,34.5c-0.2,3.9,0.5,8,1.2,11.9c0.9,4.6,3.9,5.4,7.3,2
			c1.6-1.6,3-3.3,4.2-5.2c6.6-10.1,10.3-21.5,13.8-33c-4.6-5-8.1-10.5-9.2-17.2c-1.2-7-1.2-14,2.1-20.5c2.7-5.2,7.4-7.7,12.2-6.6
			c4.3,1,6.1,4.1,6.8,8.1c1.5,8.2-0.2,16.1-2.3,23.9c-0.5,2-1.2,3.9-1.8,5.9c0.2,0.2,0.4,0.4,0.7,0.6c3.2-2.3,6.4-4.5,9.6-6.8
			c0.7-0.5,1.4-1.1,2.1-1.6c6.1-4.1,10.7-2.9,14.2,3.7c2.9,5.3,2.5,11,1.8,16.6c-1,7.6-2.8,15-3.8,22.6c-0.7,4.7-0.8,9.5-0.9,14.2
			c0,1.5,0.6,3.1,1.1,5.2c1.6-0.8,2.9-1.1,3.7-1.9c2.4-2.4,5-4.8,7-7.5c8-11,14.2-23,18.8-35.8c1-2.7,0.9-5.9,1.2-8.8
			c0.4-3.8,0.6-7.7,1-12.2c5.7,0.7,10.8,1.3,16.3,2c-0.1,2-0.2,3.5-0.3,5c-1,15.4-2,30.7-2.9,46.1c-0.2,2.7,0.1,5.5,2.4,7.6
			c2.9-0.3,4.1-2.5,5-4.6c2.4-5.9,4.7-12,6.8-18c3.7-10.8,4.8-22,5.1-33.3c0-0.7,0.1-1.3,0.2-2c0.1-0.3,0.3-0.6,0.7-1.5
			c4.9,0.5,10,1,15.4,1.6c0,2.8,0.1,5.3,0,7.8c-0.5,11.7-1.2,23.5-1.6,35.2c-0.1,2.7,0.4,5.5,1.1,8.2c0.4,1.4,1.5,3.6,2.5,3.8
			c1.6,0.2,3.9-0.6,4.9-1.8c2.7-3.2,5.5-6.6,7.1-10.4c3.9-8.9,7.1-18.1,10.5-27.2c0.3-0.9,0.6-1.9,1-3c1.5,0.4,2.9,0.8,4.6,1.3
			c-0.8,2.8-1.4,5.3-2.2,7.8c-3.1,9.6-6.3,19.2-11.9,27.7c-2.3,3.5-5,6.9-8.2,9.4c-5.5,4.3-12.2,3-16.3-2.7c-4-5.7-5.5-12.3-6.7-19
			c-0.1-0.5-0.2-1.1-0.4-2.5c-0.6,1.5-0.9,2.3-1.1,3c-2.1,5.6-4.1,11.2-6.3,16.8c-0.3,0.9-0.9,1.8-1.4,2.6c-5.8,8.6-14.7,8-19.3-1.3
			c-3.4-6.9-4.7-14.3-5.6-21.8c-0.1-1.1-0.2-2.2-0.8-3.5c-0.4,0.8-0.9,1.5-1.3,2.3c-4.6,9.6-9.6,19-16.5,27.2
			c-1.8,2.1-3.8,4.1-5.9,5.9c-6.8,5.7-15.4,4.2-19.1-3.9c-1.9-4.2-3.2-9.1-3.5-13.7c-0.8-11.8,1.6-23.4,4.1-34.9
			c0.2-0.9,0.4-1.7,0.5-2.6c0-0.3-0.1-0.6-0.2-1.4c-5.2,3.2-9.7,7.5-15.1,7.5c-4,9.8-7.4,19-11.7,27.9c-2.3,4.8-5.7,9.3-9.6,13
			c-5.9,5.7-14.2,4.3-18-2.9c-2.7-5.2-4.1-11.2-6-16.8c-0.2-0.7-0.3-1.4-0.6-3c-0.6,1.5-0.9,2.2-1.2,3c-1.8,5-3.4,10.1-5.5,14.9
			c-1.2,2.7-3,5.3-5,7.3c-4.1,4.1-9.7,3.7-13.5-0.6c-4-4.5-5.6-10-6.7-15.7c-1-5.4-1.6-10.9-2.5-16.7c-1.5,2-2.8,3.8-4.2,5.6
			c-5.6,7.7-12.6,13.6-21.3,17.6c-1.1,0.5-2,1.3-2.8,2.3c-6.8,8.2-15,12-25.5,8.1c-2.6,8-2.5,42,0.2,49.2c3.3,0.8,3.3,0.8,4.1,4
			c-3.4,3-7.6,3.4-10.7,0.4c-2.1-2-3.8-4.7-4.8-7.4c-3.6-9.2-3.3-19-3.7-28.6c-0.7-20.1,0.8-40.1,3-60.1c0.6-5.3,1.1-10.6,1.7-15.9
			c0.1-1,0.3-1.9,0.6-3.7c5.3,0.5,10.5,0.9,15.9,1.4c0,2.5,0,4.4,0,6.4c2.3-2.7,4.2-5.4,6.6-7.6c4.2-4,9.4-4,13.8-0.3
			c3.9,3.3,6.5,7.6,7.4,12.7c1.7,9.1,1.3,18.1-1.2,27c-0.3,1.1-0.6,2.1-0.8,3.2C223.3,425.9,223.9,425.6,224.1,425.8z"/>
		<path class="st6" d="M282.5,303c-3.9,4.2-9.1,6-14.3,7.4c-2.9,11.8-7.3,22.8-13.6,32.9c-1.9,2.9-4.3,5.6-7,7.8
			c-4.5,3.7-12.4,4.1-16.6-2.3c-3.5-5.3-5.1-11.1-6.5-17.1c-0.3-1.4-0.8-2.7-1.3-4c-0.7-0.7-0.8-1.5-0.5-2.4c1.8-1.7,2.9-0.5,3.9,1
			c1.8,3,1.8,6.3,1.9,9.6c0,1.1-0.1,2.2,0.7,3.1c1.5,1.8,2.4,3.9,3,6.2c0.3,1.2,1.1,2.2,2.6,2.9c-0.5-1.8,1.2-2.9,1-4.6
			c-0.3-1.6-0.2-3.1-0.2-4.7c-0.1-3,0-6,0-9c0-2.5-0.2-5-0.9-7.5c-0.8-3-1.2-6.2,1.7-8.7c-2-4.3,1.2-8.4,0.5-12.7
			c0.1-2,0.2-4.1-0.1-6.2c-1.1,0.2-1.3,1.1-2.1,1.4c-2,0.7-4,0.5-6.1,0.5c-0.9,0-1.8,0-2.9,0.9c-0.5,7.3-1,15-2.9,22.5
			c-0.1,1.8-1.2,3.3-1.3,5c-0.1,1.2,0.2,2.4,1.1,3.3c-2.4,6.8-4.6,13.7-7.2,20.5c-0.7,1.8-2.3,3.3-3.8,4.6
			c-4.6,4.1-11.2,2.8-14.8-2.8c-3.1-4.8-4.8-10.2-5.6-15.9c-0.7-4.7-1.2-9.4-1.9-14.5c-0.8,0.7-1.5,1.1-1.9,1.8
			c-6,9.2-13.6,16.5-23.7,21.1c-0.9,0.4-1.5,1.2-2.2,1.9c-2,1.9-4,3.8-6.1,5.6c-5.6,5-12.1,5.3-19,3.5c-0.4-0.1-0.8-0.2-1.6-0.4
			c-1.7,16.3-2.5,32.5,0.1,48.6c0.7,0.3,1.2,0.5,1.8,0.6c1.9,0.3,3,1.6,2.5,3.2c-0.3,1.1-1.7,2.3-2.9,2.6c-4.9,1.3-9.4-1.5-11.7-6.9
			c-2.6-5.9-3.5-12.1-3.8-18.4c-0.5-10.8-1-21.7-0.6-32.6c0.5-12.8,2-25.5,3-38.3c0.5-5.7,1-11.4,1.4-17.2c0.3-3.9,1-4.6,4.9-4.4
			c2.8,0.2,5.5,0.4,8.3,0.7c3.5,0.3,4,1.1,3.6,4.7c-0.1,0.9,0,1.7,0,3.4c0.9-1.6,1.4-2.5,2-3.4c2.3-4.1,5.3-7.3,10.2-8.1
			c6.2-1.1,11,4.2,12.9,8c5.7,11.5,4.8,23.3,1.5,35.2c-0.2,0.8-0.4,1.7-0.7,2.6c0,0.1,0.1,0.2,0.4,1c2.3-1.7,4.6-3.2,6.7-5.1
			c6.6-6,11.3-13.3,14.9-21.4c0.5-1.1,0.5-2.4,0.5-3.6c0.3-4.3,0.5-8.6,0.7-12.9c0.1-1.8,0.8-3.2,2.7-3c4.6,0.5,9.1,1.3,14.1,2
			c-0.3,4.1-0.6,7.8-0.9,11.5c-0.6,7.6-1.4,15.2-1.9,22.8c-0.4,5.6-0.6,11.3-0.6,16.9c0,2,0.4,4,1,5.8c0.8,2.5,2.8,2.8,4.5,0.7
			c1.2-1.5,2.1-3.1,3.1-4.7c1.8,2.3,0.2,4.1-1,5.9c1.5-1.8,3.3-3.5,1-5.9c3-9.9,6.4-19.7,8.8-29.8c1.4-5.8,1.3-12,1.8-18.1
			c0.1-1.6,0-3.3,0-5.7c5.8,0.5,11,1,16.9,1.6c-0.4,4.9-0.7,9.4-1.1,13.8c-0.1,1-0.3,1.9-0.4,2.9c-0.5,6.6-1,13.2-1.2,19.8
			c-0.1,3.5,0.5,7,0.8,10.5c0.1,1.4,0,3,0.5,4.2c0.6,1.6,1.4,3.7,2.7,4.1c1.2,0.5,3.6-0.4,4.6-1.5c2.5-2.8,4.7-5.8,6.7-9
			c5.2-8.5,8-17.9,10.9-27.3c0.3-1.1-0.2-2.8-1-3.8c-6.9-9-9.6-19.1-7.3-30.2c0.6-2.8,1.9-5.6,3.5-8.1c2.7-4.1,6.8-5.4,11.2-4
			c3.3,1,6.2,5,6.5,9.1c0.6,9-1,17.8-4,26.3c-0.2,0.5-0.4,1-0.6,1.5c-0.1,0.3,0,0.6,0.2,2c3.1-2.5,5.8-4.5,8.4-6.7
			c3.1-2.5,5.8-5.4,10.3-5.1c3,0.2,5.2,1.5,6.4,3.9c3,6,4.3,12.4,2.8,19.2c-0.8,3.7-0.7,7.6-1.3,11.3c-0.6,4.1-1.9,8.1-2.3,12.3
			c-0.5,5-0.5,10.1-0.6,15.1c0,1,0.6,2,1.3,3.9c2.5-2.1,4.9-3.5,6.6-5.5c10.1-12,17.2-25.8,22.6-40.5c0.7-1.8,0.6-3.9,0.7-5.9
			c0.4-4.9,0.9-9.8,1.3-15.5c5.4,0.7,10.3,1.3,15.4,1.9c0.2,0.8,0.6,1.6,0.6,2.3c-0.6,6.1-1.4,12.2-1.8,18.3
			c-0.3,4.2-0.1,8.4-0.3,12.6c-0.3,5-1,10-1.1,15c0,3.5,0.8,6.9,1.2,10c2.4,1.4,3.5,0.8,4.7-0.8c3.9-5.1,5.9-11.2,7.6-17.2
			c2-7.1,3.7-14.3,5.2-21.5c0.7-3.4,0.3-7.1,0.5-10.6c0.1-2.6,0.4-5.2,0.7-8.6c5.4,0.5,10.5,1,16,1.5c0,3.7,0.1,6.9,0,10.1
			c-0.4,7.9-1.1,15.8-1.3,23.8c-0.1,5.8,0.3,11.6,0.7,17.4c0.1,1.5,1.1,3,1.6,4.3c2.5,1.2,4,0.3,5.6-1.2c5.3-5.3,8.3-12,11.2-18.6
			c2.7-6.3,4.6-12.9,6.8-19.4c0.3-0.9,0.7-1.8,1.1-3c1.6,0.4,2.9,0.8,4.7,1.3c-1.5,4.3-2.9,8.3-4.3,12.3c-0.7-1.6-0.7-1.6-0.6-3.4
			c-1,1.4-1,3.1-1.8,4.5c-1.4,2-1.7,4.4-2.5,6.7c1-2.1,1.3-4.4,2.3-6.5c0.8-0.6,1.1-2.3,2.7-1.3c-1.8,7.5-4.9,14.6-9,21.1
			c-2.5,3.8-5.3,7.6-8.7,10.7c-4.6,4.2-12.3,4.4-15.7-1.2c0.8-0.8,2.1-1.5,0.3-3.2c0.3,1.3,0.6,2.4-0.3,3.2
			c-1.6-2.6-3.7-4.9-4.7-7.7c-1.5-4.4-2.2-9.1-3.3-13.6c-0.5-0.9-0.4-1.8-0.1-2.7c2.3-0.7,2.2,1.2,2.3,2.5c0.2,2.9,1,5.5,2.2,8.1
			c0.5,1.1,0.5,2.3,0.6,3.5c2,1.8,4.3,3.1,6.6,4.7c1.3-1.7,0.7-3-0.2-4.1c-1.7-2.3-2-4.8-1-7.4c0.4-1.2,0.5-2.4,0.5-3.6
			c-0.1-10,2-19.9,1.5-29.9c0-1.5,2.5-3.3-0.4-4.6c-0.8-0.6-1.8-0.9-2.8-0.9c-2,0-4,0-6-0.2c0.2,0.5,0.5,0.7,0.7,1.2
			c0.2,0.7,0.3,1.6-0.3,1.9c-3.5,2.3-2.5,5.8-2.6,9c0,1.1,0,2.2,0,3.3c-0.1,0.9-0.1,1.7-0.3,2.6c-0.1,0.3-0.2,0.6-0.4,0.9
			c-1,1.2-0.7,2.6-0.8,4c0.1,1.5-0.7,2.7-1.2,4c-0.3,1.7,0.1,3.5-0.8,5.4c0.6,0,1.1-0.5,1.7-0.3c0.7,0.8,0.6,1.6,0.1,2.5
			c-1.3,3.8-2.3,7.8-4,11.4c-2.5,5.4-3.7,11.6-9.8,14.7c-4.7,2.4-9.6,1.5-12.2-3.2c-2.1-3.8-3.9-7.9-5.1-12.1
			c-1.4-5-2-10.3-3.1-16.1c-0.7,1.2-1.2,1.9-1.6,2.8c-4,8.6-8.4,17.1-14.4,24.5c-3,3.7-6.8,6.7-10.2,10c-2.2-1.8-5.2-1.1-7.5-2.6
			c-0.2-0.4-0.2-0.9-0.1-1.4c1.2-1.1,1.6-2.5,1.4-4.1c-0.4-2.7,0.2-5.6-1.1-8.2c-0.4-1.8-0.3-3.6-0.2-5.3c0.6-2.6,1.1-5.1,2.1-7.6
			c0.9-2.2,0.7-4.8,0-7.2c-0.7-2.4-0.1-4.6,1.4-6.2c1.5-1.6,1.8-3.2,1.7-5.1c0-2.1,0-4.2,0-6.3c0-1.1-3.3-10.4-3.9-11.2
			c-1.3-1.7-2.9-2.3-4.9-1c-1.9,1.3-4.5,1.3-5.8,3.6c-0.4,0.5-1.1,0.6-1.6,1.1c-0.4,0.6,0.2,0.9,0.5,1.3
			C283.2,301,282.5,302,282.5,303z"/>
		<path class="st7" d="M293,356.2c0,0.4,0,0.9,0,1.3c-0.5,0.7-1.2,1.3-1.5,2.2c-0.9,1.1-2,0.9-3.1,0.4c-0.3-0.2-0.5-0.4-0.8-0.6
			c0.1-0.7-0.1-1.4,0-2.1c0-0.9-0.7-0.9-1.3-1c-2.1-1.5-2.6-4-3.5-6.1c-0.9-2,0.6-3.3,3.7-3.3c1.6-0.2,0.9-2,1.7-2.7
			c0.2-0.2,0.5-0.3,0.5-0.7c0,0.4-0.3,0.5-0.6,0.8c-0.4,0.3-0.9,0.4-1.3,0.4c-1.8-0.2-2.8,2.3-5,1.4c-1.1-1.9-0.8-4-0.3-6.2
			c2.8-1.4,1.6-4.3,2.5-6.4c0.3-0.6,0.8-1,1.3-1.4c1.7-1.8,0.3-4.3,1.2-6.3c0-0.7,1.8-1.7-0.3-2.2c-0.8-0.1-1.7-0.1-2.5-0.3
			c-2.1-1.3-1.4-3.2-0.9-4.9c0.8-3.4,1.3-6.8,1-10.2c0.2-0.5,0.4-0.9,0.6-1.4c1-1.3,0.7-2.9,1.2-4.5c0.7-0.8,2.1-0.5,3-1.5
			c-0.8-0.8-1.6-1.5-2.6-2c-0.7,0.4-0.7,1-0.9,1.5c-0.1,0.5-0.4,0.8-0.7,1.2c-0.7,0.4-1.3,0.8-2,1.2c0-0.9-0.1-1.8-0.1-2.7
			c-0.2-1-0.1-1.9,0.7-2.7c0.5-1.1,1.1-2.1,1.6-3.2c0.1,0.2,0.3,0.3,0.4,0.5c2.1-1,4.3-2,7.1-3.4c1.7,2,3.6,4.2,5.4,6.3
			c-0.5,1.1-0.9,2-1.3,3.1c0.9,0.4,1.7,0.8,2.6,1.2c0,4.8,0,9.7,0,13.6c-1.6,2.5-2.7,4.3-3.8,5.9c3.4,6.1-0.3,11.2-1.4,16.6
			c-1.4,0.8-1.8-0.3-2-1.3c-0.6-3.2-1.9-6.3-1.3-9.1c0.1,3.6-0.4,7.9,2.2,11.6c1,1.4-0.1,3.3,1.1,4.7c0.4,0.7,1.2,1.3,1.2,2
			c0.2,2,0.1,4,0.1,6C293.8,353.3,293.1,354.6,293,356.2z"/>
		<path class="st6" d="M287,348.2c-0.8-0.2-1.7-0.4-2.5-0.6c-1.4,1.9-0.1,6.3,2.5,8.6c0.7,0.2,0.8,1,1.3,1.3
			c-0.3,0.7-0.5,1.4-0.8,2.1c-5.4-4.2-6.8-10.3-7.2-16.5c-0.8-11.2,0.5-22.3,3.2-33.2c0.1-0.5,0.1-1.1,0.2-1.7
			c0.8,3.7,1.3,7.4-0.4,11.1c-0.5,1.1-1.2,2.9,1,3.5c0.9,3.3,2.6,6.4,1.3,10c-0.4,0.2-0.9,0.4-1.3,0.7c-1.5,0.8-1.7-0.4-2-1.2
			c0,2.6,1,5.3-0.6,7.9c0,2,0.1,3.9,0.2,6.6c2.1-1.5,2.7-4.2,5.2-2.6C287.9,345.6,287.9,346.9,287,348.2z"/>
		<path class="st8" d="M501.5,344.2c0.4,3.3,0.9,6.7,1.3,10c0.7,0.8,0.7,1.8,0.7,2.8c0,7.9,0,15.8,0,23.7c0,1,0,2-0.7,2.8
			c-0.9,6.9-1.3,13.9-2.7,20.7c-2,10.1-4.6,20.2-7,30.2c-0.1,0.6-0.6,1.2-0.8,1.8c0.7-3.4,1.4-6.9,2.2-10.3c0-0.1,0.1-0.2,0.2-0.3
			c1-4.7,2-9.4,3-14.1c0.8-3.9,1.6-7.8,2.4-11.6c0.1-0.4,0.2-0.9,0.2-1.3c0.5-8.3,1.1-16.6,1.3-24.9
			C501.7,363.9,501.5,354,501.5,344.2z"/>
		<path class="st6" d="M284.4,300.3c0.1-0.8,0.2-1.7,0.4-3.1c2.2,1.5,4,2.6,6,4c-1.6,0.7-3.1,1.4-4.5,2c-0.6,1.3-1.3,2.6-1.9,3.9
			c0.2-1.7,0.3-3.5,0.5-5.2C285.1,301.1,284.8,300.7,284.4,300.3z"/>
		<path class="st9" d="M291,358.9c0.7-0.4,1.3-0.9,2-1.3c2.3,0.2,4.6,0.4,7.1,0.7c0,0.5,0.1,1.2,0.2,1.9l-0.3,0.1l-0.3,0
			C296.6,361.2,293.7,361,291,358.9z"/>
		<path class="st9" d="M223.1,324.9c0,0.9,0,1.8,0,2.8c-0.2,0.2-0.4,0.4-0.6,0.6c-2-0.6-2.7-2.6-1.8-5c0.4-1,0.7-2,1.1-3
			c0.8-0.6,1.3-0.2,1.8,0.5c0.2,0.5,0.3,1,0.4,1.6C224,323.3,223.8,324.2,223.1,324.9z"/>
		<path class="st10" d="M360.9,328.1c0-0.6,0-1.3,0-2.5c-1.1,1-1.9,1.6-3,2.6c0.4-2.9,0.7-5.4,1-8c2.6,0.5,3.5,2.3,2.7,5.3
			c0,0.9,0,1.8,0,2.7C361.4,328.2,361.2,328.2,360.9,328.1z"/>
		<path class="st6" d="M291,358.9c2.9,0.5,5.8,0.9,8.7,1.4c-3.8,2-7.6,2-11.4,0C289.3,359.8,290.2,359.3,291,358.9z"/>
		<path class="st10" d="M284.4,300.3c0.6,0.1,1.2,0.2,2.5,0.5c-1.2,0.5-1.6,0.7-2,0.9c-0.2,0-0.3,0-0.5,0
			C284.4,301.3,284.4,300.8,284.4,300.3z"/>
		<path class="st3" d="M477.7,263.8c0.2,0.2,0.3,0.4,0.5,0.6C478,264.2,477.8,264,477.7,263.8z"/>
		<path class="st11" d="M593,478.4c10.4,0.7,18.1,5,23.2,13.4c5.6,9.3,5.3,19.1,2.2,29c-18.1-0.5-26.7-10.2-27.5-24.8
			C590.5,490.3,591.3,484.5,593,478.4z"/>
		<path class="st12" d="M581.7,300.4c3.6,7.8,4.6,15.8,0.5,23.8c-5,9.7-13.8,13.5-24,14.7c-6-10.7-5.9-20.9-1-26.7
			c2.4-2.8,5.4-5.3,8.5-7.2C571,301.8,578,300.1,581.7,300.4z"/>
		<path class="st11" d="M532.8,340.6c-14.2,1-25.6-8.4-26.5-21.8c-0.4-5.4,0.5-10.8,0.9-16.2c0.2-2.4,1.4-2.9,3.8-2.6
			c15.2,1.9,25.2,15.8,23.4,31.7C534,334.6,533.4,337.5,532.8,340.6z"/>
		<path class="st11" d="M640.5,375c3.3,4.5,2,14.9-2.4,20.7c-5.7,7.6-16.7,9.9-27.2,5.7c-3.8-9.9,1-22.6,10.4-26.3
			c3-1.2,6.7-1.2,10.1-1.2C634.5,373.8,637.6,374.6,640.5,375z"/>
		<path class="st12" d="M471.3,523.8c-8.1-12-6.1-24.3,5.4-32.3c4-2.8,8.6-4.7,13.1-7.2c4.6,7.3,5.5,14.3,2.8,21.5
			C488.9,515.7,481.3,521.1,471.3,523.8z"/>
		<path class="st12" d="M584,531c-13.5,2.4-24.8-5.7-26.4-18.9c-0.5-3.8-0.4-7.7-0.5-11.6c0-1.2,0.4-2.3,0.6-3.3
			C573,494.8,588.9,509.5,584,531z"/>
		<path class="st12" d="M523.5,532.4c-8.1-5.5-14.5-11.8-13.3-22.3c0.9-8.4,6-14.7,11.2-21.2c7.2,4,11.2,9.7,12.4,17.1
			C535.4,516.5,531.2,524.9,523.5,532.4z"/>
		<path class="st13" d="M625.7,340.6c1.1,7.8,0.3,14.6-5.7,19.8c-6.5,5.6-14,5.1-21.8,2.6c-1-7.1-1.5-14.3,4.2-19.6
			C609.1,337,617.4,339.1,625.7,340.6z"/>
		<path class="st12" d="M617.8,467.3c6-4,11.9-8,19.5-7.3c6.6,0.6,14.2,7.5,15.4,13.9c0.1,0.7-0.2,1.8-0.7,2.3
			c-5.9,6-19.6,7.4-26.7,2.7C621.1,476.2,618.7,472.4,617.8,467.3z"/>
		<path class="st14" d="M626.1,429.6c8.9-19.5,22.9-21.5,35-9.2c-3.7,7.4-8.8,13.5-17.3,15.5C636.8,437.4,630.9,435.1,626.1,429.6z"
			/>
		<path class="st15" d="M678.7,325.5c3.9,2.2,5.5,6.3,7.5,9.9c4.1,7.2,7.8,14.6,11.5,22c0.6,1.2,0.6,2.7,0.9,4
			c-0.5-0.6-1.1-1.2-1.4-1.9c-3.6-7.1-7.1-14.2-10.9-21.2c-2.1-3.8-4.7-7.4-7-11.1C679,326.9,678.9,326.2,678.7,325.5z"/>
		<path class="st16" d="M502.7,383.5c0-9.8,0.1-19.6,0.1-29.4c0.4,0.9,1.3,1.7,1.3,2.6c0.1,8.1,0.1,16.2,0,24.3
			C504.1,381.9,503.2,382.7,502.7,383.5z"/>
		<path class="st15" d="M669.3,312.3c4.3,3.6,8,7.6,9.4,13.2c-0.9-1-1.9-1.9-2.7-3c-2.1-2.6-4.2-5.3-6.2-8
			C669.3,313.9,669.4,313,669.3,312.3z"/>
		<path class="st17" d="M203.3,431.9c-4.4,1.2-7.6,2.1-11.2,3.1c0.8-6.4,1.8-12.8,2.3-19.2c0.8-10.1,5.3-18.6,10.7-26.8
			c1-1.5,2.6-2.5,4.6-4.4c1,2.4,1.9,3.9,2.1,5.5c1.1,9.1-0.5,17.9-3,26.5C207.3,422,205,427.2,203.3,431.9z"/>
		<path class="st18" d="M323.2,393.2c-1.7-1.5-2.9-2.2-3.6-3.2c-4.9-6.1-6.1-19.4-2.3-26.2c0.6-1.1,1.3-2.1,2.1-3
			c3.2-3.3,7.4-2.4,8.2,2.1c0.6,3.5,0.6,7.3,0,10.8C326.5,380.1,324.8,386.2,323.2,393.2z"/>
		<path class="st1" d="M224.1,425.8c-0.2,0-0.5,0.1-0.7,0.1c0.1-0.2,0.2-0.4,0.2-0.7C223.8,425.5,223.9,425.7,224.1,425.8z"/>
		<path class="st19" d="M135.9,343.8c0.3-3.2,0.5-6.3,0.8-9.5c0.6-5,1.1-10.1,2-15.1c0.5-2.7,1.4-5.4,2.7-7.8
			c2.6-5.1,5.5-10.1,8.5-15c0.6-1,2.2-1.5,3.3-2.2c0.7,1.1,1.8,2.2,2.1,3.4c1.7,9-0.1,17.8-2.4,26.4c-1.6,5.8-4,11.4-5.8,16.7
			C143,341.9,139.7,342.8,135.9,343.8z"/>
		<path class="st7" d="M341.7,297.6c-0.8,0.1-1.6,0.2-2.4,0.3c-0.2,0.3-0.4,0.7-0.6,1c0.7,0.3,1.5,0.5,2,1.1
			c1.8,1.9,3.1,3.5,1.3,6.7c-1.2,2-0.3,5.2-0.3,7.8c0,2.5,0,5.1,0,7.8c-2.5,1.3-2.8,3.5-2.7,6.1c0.2,5.4,0,10.8,0,16.3
			c-0.9,0.8-1.8,1.5-2.7,2.3c-1.2,0.9-1.9,0-2.7-0.7c-0.6-3.7-1.2-7.5-1.9-11.6c-0.3,0-1.1-0.1-2.2-0.2c0.6-2.6,1.2-4.9,1.7-7.3
			c-0.3,0-0.6,0.1-0.9,0.1c-1.1-2.3-2.2-4.7-3.3-7c1.4-1.9,0.4-3.1-1.3-4c1.2-0.9,2.4-1.9,3.8-3c-3-3.6-0.2-7.4,0.7-11.1
			c0.4-1.8,1.1-2.8-0.6-4.2c-0.7-0.5-0.8-1.8-1-2.2c0.6-2,1.1-3.5,1.8-5.7c2.2,0.9,4.5,1.9,6.7,2.8c0.8,1.1,2,1.5,3.3,1.9
			C341.7,295.3,342.7,296,341.7,297.6z"/>
		<path class="st20" d="M223.1,324.9c0-0.9,0-1.8,0-2.7c0.5-0.4,0.5-0.9,0-1.3c-0.4-0.2-0.9-0.4-1.3-0.7c0.4-3.3,0.9-6.6,1.3-9.9
			c0.6-4.7,1.3-9.4,2-14.6c0.8,0,2-0.1,3.3-0.2c0.7,0.6,0.2,1.5,0.8,2.2c1.8,0.6,3.8,0.1,5.7,0.3c0.5,0,0.9,0.2,1.4,0.4
			c0.8,0.4,0.9,1.3,1.5,1.8c-0.4,2.7-0.9,5.3-1.2,8c-0.1,1.3,0.3,2.7,0.6,4.1c0.2,0.9,0.4,1.8,0.7,2.9c-1.1,0-1.8,0-2.5,0
			c0.4,8,0.7,15.8,1.1,23.6c-0.7,1.8-2.4,3.6,0,5.3c0.4,0.1,0.7,0.3,1.6,0.7c-1.2,0.5-2,0.8-2.8,1.2c0.4,1,0.8,1.9,1.1,2.8
			c-2.1,0.6-4.5-0.9-5.3-3c-1-2.7-2.2-5.3-3.6-8.9c0.6-2.8,0.1-6.6-1.8-10.2C225.3,325.9,224,325.5,223.1,324.9z"/>
		<path class="st7" d="M361.6,325.6c-0.9-1.8-1.8-3.5-2.7-5.3c0.4-1.3,0.9-2.7,1.3-4c1.2-1.1,0.1-2.9,1.3-4c0.9-0.9,0.9-1.8,0-2.7
			c0-3.9,0-7.9,0-11.8c0.4,0.1,0.7,0.3,1.1,0.4c0.8-1.3,1.5-2.6,2.3-3.8c1.8-1.6,4.2,0.2,6-1.3c0.9,0.4,1.8,0.9,2.7,1.3
			c-0.3,1.8-0.3,1.8-3.7,2.5c1.3,2,3.6,0.4,5,1.5c0,4.4,0.2,8.8,0,13.2c-0.3,6.8-0.8,13.7-1.4,20.5c0,0.5-0.8,1-1.3,1.6
			c-0.7,0.7-1.4,1.3-2.5,1.1c-0.8-0.1-1.7-0.4-2.5-0.2c-0.9,0.2-0.9,1.3-1.7,1.7c-1.8-2-2.6-4.4-2.7-7.1
			C362.9,327.9,363.8,326.1,361.6,325.6z"/>
		<path class="st21" d="M265.6,301.9c-1.3-1.8-3-3.4-3.8-5.4c-1.4-3.6-2.7-7.3-3.2-11.1c-0.7-5.2,0.2-10.3,3.5-14.7
			c1.7-2.2,3.8-3,6.4-2.3c2.6,0.7,3,3,3.2,5.2c0.5,6.6-1,12.9-2.6,19.2c-0.7,2.9-1.5,5.7-2.3,8.5C266.4,301.6,266,301.7,265.6,301.9
			z"/>
		<path class="st9" d="M369.6,334.2c0.9-0.2,1.8-0.4,2.7-0.7c-0.1,2.4,0.1,4.6,1.8,6.7c0.9,1.1,0.7,3.1,1,4.8
			c-0.3,0.3-0.7,0.5-1,0.8c-1.8-1.1-3.6-2.2-5.1-3.1c-1.4-1-2.4-1.8-3.4-2.5c1.5-0.8,0.4-2.5,1.3-3.5
			C368.7,336.9,368.8,335.1,369.6,334.2z"/>
		<path class="st22" d="M280.2,302.1c-3,4.2-7,5.5-11.8,4.7c-0.7,0.9-1.3,1.7-2.1,2.8c-0.7-1.7-1.2-3.1-1.8-4.6
			c1.6-2.9,4.6-2.8,6.6-1.7c2.7,1.6,3.5,0.4,4.4-1.7C277.1,301.8,278.5,301.9,280.2,302.1z"/>
		<path class="st9" d="M293.7,344.2c-0.2-0.1-0.6,0-0.6-0.2c-2.7-6.2-4.6-12.5-2.3-19.4c0.1,1,0.1,2,0.2,3c0.5,3.3,1,6.7,1.6,10
			c0,0.3,0.7,0.4,1.1,0.6C293.7,340.2,293.7,342.2,293.7,344.2z"/>
		<path class="st9" d="M375,298.3c-2.7,1.3-4.8,0.1-7.9-1.6c1.6-0.5,2.7-0.7,3.6-1c1-0.4,1.9-0.9,2.9-1.3c0.7,0.1,1.5,0.1,3.1,0.3
			C376,296,375.5,297.2,375,298.3z"/>
		<path class="st22" d="M333.7,346.2c0.9,0.2,1.8,0.4,2.7,0.7c0.6,0.4,1.2,1,1.9,1.3c1,0.4,2.1,0.5,3.2,0.8c0,1.3,0,2.4,0,3.4
			C337.7,352.1,334.6,349.7,333.7,346.2z"/>
		<path class="st22" d="M235.1,298.9c-2.5,0-5,0-7.9,0c0.5-1.4,0.9-2.4,1.2-3.3c2.2,0,4.4,0,6.7,0c0.1,0.1,0.2,0.3,0.4,0.4
			C236,297.1,235.9,298,235.1,298.9z"/>
		<path class="st9" d="M341.7,297.6c0.2-1.7-0.7-2.1-2.2-2c-1.9,0.1-2.6-0.9-2.5-2.7c1.8,0,3.7,0,5.7,0c0,2.1,0,3.8,0,6.4
			C342.1,298.3,341.9,298,341.7,297.6z"/>
		<path class="st20" d="M212.4,344.2c0.7-0.1,1.5-0.3,2.2-0.4c-0.5,5.1-1,5.8-4.6,8.1C210.9,349.2,211.7,346.7,212.4,344.2
			C212.4,344.2,212.4,344.2,212.4,344.2z"/>
		<path class="st22" d="M224.7,293.9c0-0.7,0-1.3,0-2.7c2.7,0.7,5.1,1.4,7.5,2c0,0.2,0,0.5-0.1,0.7
			C229.7,293.9,227.4,293.9,224.7,293.9z"/>
		<path class="st9" d="M399.6,320c0.6,3.5,0.3,6.7-2.4,8.8c-0.3-0.1-0.7-0.3-1-0.4C397.4,325.6,398.5,322.8,399.6,320z"/>
		<path class="st9" d="M403,318.9c-0.9,0.4-1.8,0.9-2.7,1.3c0.5-2.6,1.1-5.1,1.6-7.7c0.4,0,0.7,0,1.1,0.1
			C403,314.7,403,316.9,403,318.9L403,318.9z"/>
		<path class="st22" d="M237.8,300.3c-0.4-0.4-0.9-0.9-1.3-1.3c-1.1-0.9-0.2-2.5-1.3-3.3c0-1.4-0.2-3.1,2.7-2.3
			C237.8,295.6,237.8,297.9,237.8,300.3z"/>
		<path class="st9" d="M258.8,328.9c0.6-1.9,1.3-3.8,1.9-5.7c0.4,0.1,0.8,0.2,1.2,0.3c-0.4,2-0.9,3.9-1.3,5.9
			C260,329.2,259.4,329.1,258.8,328.9z"/>
		<path class="st22" d="M371,293c-0.8,0.4-1.6,1.1-2.5,1.3c-1.1,0.2-2.4,0.1-3.5,0.1c-0.7-0.4-1.5-0.8-2.2-1.2
			c0.1-0.2,0.2-0.3,0.3-0.5C365.7,292.7,368.3,292.8,371,293z"/>
		<path class="st22" d="M369.6,349.6c-0.4-1.4-0.7-2.8-1.1-4.1c0.2-0.2,0.3-0.4,0.5-0.6c1.2,1.1,2.4,2.2,3.6,3.3
			c-0.1,0.3-0.3,0.6-0.4,1C371.4,349.3,370.5,349.4,369.6,349.6L369.6,349.6z"/>
		<path class="st22" d="M325.7,316.3c0.7-0.1,1.5-0.3,2.4-0.5c0.3,1.4,0.5,2.6,0.8,4.1c-0.6,0.1-1.2,0.3-1.8,0.4
			C326.6,318.9,326.1,317.6,325.7,316.3z"/>
		<path class="st9" d="M236.4,344.2c-0.8-0.1-1.7-0.2-3.4-0.4c1.4-2,2.4-3.4,3.4-4.9C236.4,340.7,236.4,342.4,236.4,344.2z"/>
		<path class="st22" d="M367,336.9c0.2,0.8,0.4,1.7,0.7,2.8c-0.7,0.2-1.3,0.4-2,0.5c0-1.3,0-2.7,0-4c0.4-0.9,0.9-1.8,1.3-2.7
			C367.8,334.7,367.8,335.8,367,336.9z"/>
		<path class="st9" d="M293,356.2c-1.6-2.4-0.5-3.5,2-4C294.6,353.7,296.3,356.2,293,356.2z"/>
		<path class="st10" d="M283,297.6c-0.2,0.9-0.4,1.8-0.7,2.7c-0.6-0.5-1.3-1-1.9-1.5C281.3,298.4,282.2,298,283,297.6z"/>
		<path class="st10" d="M361.6,312.3c-0.5,1.3,1.1,3.3-1.3,4C360.8,314.9,359.2,312.9,361.6,312.3z"/>
		<path class="st10" d="M361.6,309.6c0.4,0.5,1,0.9,1.2,1.5c0.1,0.2-0.8,0.8-1.2,1.1C361.6,311.4,361.6,310.5,361.6,309.6z"/>
		<path class="st22" d="M281.7,340.2c0-3.8,0-7.7,0-11.5c0.3,0,0.6-0.1,0.9-0.1c0.1,0.8,0.1,1.7,0.4,2.5c0.3,0.9,0.9,1.7,1.3,2.6
			c0,2,0,4.1,0,6.3C283.3,340,282.5,340.1,281.7,340.2z"/>
		<path class="st9" d="M285.7,332.9c-0.4-3.3-0.9-6.7-1.3-10c0.9,0,1.8,0,2.7,0c0.7,0.9,0.7,1.8,0,2.7c0,1.7,0.1,3.5-0.1,5.2
			C286.9,331.5,286.2,332.2,285.7,332.9z"/>
		<path class="st6" d="M293.4,323.3c0,1.1,0,2.1,0,3.2c-0.2,0-0.5,0-0.7,0.1c-0.1-1.1-0.2-2.1-0.3-3.2
			C292.7,323.3,293.1,323.3,293.4,323.3z"/>
		<path class="st9" d="M287,348.2c0-1.3,0-2.7,0-4c0.4,0,0.9,0,1.3,0C287.9,345.5,289.5,347.6,287,348.2z"/>
		<path class="st6" d="M287.3,309.2c0-1.1,0-2.1,0-3.2c0.2,0,0.5,0,0.7-0.1c0.1,1.1,0.2,2.1,0.3,3.2
			C288,309.2,287.7,309.2,287.3,309.2z"/>
		<path class="st9" d="M288.3,344.2c0.2-0.8,0.3-1.5,0.5-2.4c0.4,0.2,0.7,0.3,0.7,0.3c-0.2,0.7-0.3,1.5-0.5,2.2
			C288.7,344.3,288.5,344.3,288.3,344.2z"/>
		<path class="st9" d="M288.4,357.5c-0.4-0.4-0.9-0.9-1.3-1.3c0.1-0.4,0.3-0.7,0.4-1.1c0.2,0,0.4,0,0.6,0
			C288.2,355.9,288.3,356.7,288.4,357.5z"/>
		<path class="st6" d="M287,325.6c0-0.9,0-1.8,0-2.7c0.4,0.5,1,0.9,1.2,1.5C288.3,324.7,287.5,325.2,287,325.6z"/>
		<path class="st9" d="M290.7,346.5c0,0.7,0,1.3,0,2c-0.2,0-0.4,0-0.6,0c-0.1-0.7-0.1-1.3-0.2-2
			C290.1,346.6,290.4,346.6,290.7,346.5z"/>
		<path class="st6" d="M223.1,320.9c0.4,0.3,0.7,0.5,1.1,0.8c-0.4,0.2-0.7,0.3-1.1,0.5C223.1,321.8,223.1,321.4,223.1,320.9z"/>
		<path class="st6" d="M335.3,336.6c0-0.9,0-1.7,0-2.6c0.2,0,0.5-0.1,0.7-0.1c0.1,0.9,0.2,1.8,0.3,2.6
			C335.9,336.5,335.6,336.5,335.3,336.6z"/>
		<path class="st6" d="M230.8,334c0,1.1,0,2.1,0,3.2c-0.2,0-0.4,0-0.7,0c0-1.1,0-2.1,0-3.2C230.4,334,230.6,334,230.8,334z"/>
		<path class="st6" d="M235.1,295.6c0.4,1.1,0.9,2.2,1.3,3.3c-0.4,0-0.9,0-1.3,0C235.1,297.8,235.1,296.7,235.1,295.6z"/>
		<path class="st6" d="M367,336.9c0-1.1,0-2.2,0-3.3c0.9,0.2,1.8,0.4,2.7,0.7c0,1.2,0,2.4,0,3.8C368.5,337.6,367.7,337.2,367,336.9z
			"/>
	</g>
</g>
</svg>
